<svg xmlns="http://www.w3.org/2000/svg" width="23.339" height="30" viewBox="0 0 23.339 30"><g transform="translate(0)"><path d="M127.276,1.811h5.014v.844H134.1V1.693A1.694,1.694,0,0,0,132.409,0h-5.252a1.694,1.694,0,0,0-1.692,1.693v.962h1.811Zm0,0" transform="translate(-118.113)"/><path d="M58.286,167.75h-17a.8.8,0,0,0-.795.862l1.421,17.573a1.887,1.887,0,0,0,1.88,1.737H55.779a1.887,1.887,0,0,0,1.88-1.737l1.421-17.572A.8.8,0,0,0,58.286,167.75ZM45.4,186.047l-.057,0a.905.905,0,0,1-.9-.85l-.891-14.426a.905.905,0,1,1,1.807-.111l.89,14.426A.905.905,0,0,1,45.4,186.047Zm5.3-.9a.905.905,0,0,1-1.811,0V170.717a.905.905,0,1,1,1.811,0ZM56.02,170.77,55.17,185.2a.905.905,0,0,1-.9.852h-.054a.905.905,0,0,1-.851-.957l.85-14.426a.905.905,0,0,1,1.808.107Zm0,0" transform="translate(-38.117 -157.921)"/><path d="M23.3,78.78,22.706,77a1.151,1.151,0,0,0-1.092-.787H1.726A1.151,1.151,0,0,0,.634,77L.039,78.78a.748.748,0,0,0,.709.983H22.592a.737.737,0,0,0,.4-.114A.746.746,0,0,0,23.3,78.78Zm0,0" transform="translate(0 -71.745)"/></g></svg>