<svg xmlns="http://www.w3.org/2000/svg" width="30" height="29.999" viewBox="0 0 30 29.999"><g transform="translate(0 -0.501)"><path d="M23.75,95.816a1.25,1.25,0,0,0-1.25,1.25v10a1.251,1.251,0,0,1-1.25,1.25H3.75a1.251,1.251,0,0,1-1.25-1.25v-17.5a1.251,1.251,0,0,1,1.25-1.25h10a1.25,1.25,0,0,0,0-2.5h-10A3.755,3.755,0,0,0,0,89.566v17.5a3.755,3.755,0,0,0,3.75,3.75h17.5a3.755,3.755,0,0,0,3.75-3.75v-10A1.249,1.249,0,0,0,23.75,95.816Zm0,0" transform="translate(0 -80.316)"/><path d="M182.875,78.152a.633.633,0,0,0-.171.319l-.884,4.42a.624.624,0,0,0,.614.747.594.594,0,0,0,.122-.012l4.419-.884a.622.622,0,0,0,.32-.171l9.89-9.89-4.419-4.419Zm0,0" transform="translate(-171.155 -63.79)"/><path d="M397.594,1.415a3.127,3.127,0,0,0-4.419,0l-1.73,1.73,4.419,4.419,1.73-1.73a3.124,3.124,0,0,0,0-4.419Zm0,0" transform="translate(-368.509)"/></g></svg>